<svg width="450" height="450" viewBox="0 0 450 450" fill="none" xmlns="http://www.w3.org/2000/svg">
<rect width="450" height="450" fill="#E5E5E5"/>
<g id="machine 1">
<g id="Group">
<path id="Vector" d="M435.2 224.6C435.2 340.947 340.947 435.2 224.6 435.2C108.253 435.2 14 340.947 14 224.6C14 108.253 108.253 14 224.6 14C340.947 14 435.2 108.253 435.2 224.6Z" fill="#FFBA00"/>
<mask id="mask0" mask-type="alpha" maskUnits="userSpaceOnUse" x="14" y="14" width="422" height="422">
<path id="Vector_2" d="M435.2 224.6C435.2 340.947 340.947 435.2 224.6 435.2C108.253 435.2 14 340.947 14 224.6C14 108.253 108.253 14 224.6 14C340.947 14 435.2 108.253 435.2 224.6Z" fill="#FFBA00"/>
</mask>
<g mask="url(#mask0)">
<g id="machine">
<g id="Group_2">
<path id="Vector_3" d="M312.795 107.719H141.572V323.129H312.795V107.719Z" fill="#E6E9E9"/>
<path id="Vector_4" opacity="0.87" d="M305.312 115.202H148.52V163.487H305.312V115.202Z" fill="#DBE4E4"/>
<path id="Vector_5" d="M245.09 123.576H208.743V143.175H245.09V123.576Z" fill="#564553"/>
<path id="Vector_6" d="M263.442 130.347C263.442 134.088 260.413 137.117 256.671 137.117C252.929 137.117 249.901 134.088 249.901 130.347C249.901 126.605 252.929 123.576 256.671 123.576C260.413 123.576 263.442 126.605 263.442 130.347Z" fill="white"/>
<path id="Vector_7" d="M288.029 133.554C288.029 139.077 283.575 143.531 278.052 143.531C272.528 143.531 268.074 139.077 268.074 133.554C268.074 128.03 272.528 123.576 278.052 123.576C283.575 123.576 288.029 128.03 288.029 133.554Z" fill="white"/>
<path id="Vector_8" d="M299.789 120.191H293.375V133.376H299.789V120.191Z" fill="#F86A6F"/>
<path id="Vector_9" d="M199.478 123.576H153.865V152.975H199.478V123.576Z" fill="white"/>
<path id="Vector_10" d="M245.624 233.687C245.624 244.021 249.544 253.286 255.958 260.234C248.831 268.074 238.497 272.885 227.094 272.885C205.536 272.885 187.896 255.424 187.896 233.687C187.896 212.128 205.357 194.489 227.094 194.489C238.497 194.489 248.831 199.299 255.958 207.139C249.544 214.088 245.624 223.353 245.624 233.687Z" fill="#E5E5E5"/>
<path id="Vector_11" d="M245.624 233.687C245.624 244.021 249.544 253.286 255.958 260.234C248.831 268.074 238.497 272.885 227.094 272.885C205.536 272.885 187.896 255.424 187.896 233.687C187.896 212.128 205.357 194.489 227.094 194.489C238.497 194.489 248.831 199.299 255.958 207.139C249.544 214.088 245.624 223.353 245.624 233.687Z" fill="#199DBF"/>
<path id="Vector_12" d="M266.649 198.943C257.027 187.896 242.952 181.126 227.273 181.126C198.23 181.126 174.712 204.645 174.712 233.687C174.712 262.729 198.23 286.248 227.273 286.248C242.952 286.248 257.027 279.299 266.649 268.43C274.845 259.165 279.833 247.05 279.833 233.687C279.655 220.324 274.666 208.208 266.649 198.943ZM227.094 272.707C205.536 272.707 187.896 255.246 187.896 233.509C187.896 211.95 205.357 194.311 227.094 194.311C238.497 194.311 248.831 199.121 255.958 206.961C249.544 213.91 245.624 223.353 245.624 233.509C245.624 243.843 249.544 253.108 255.958 260.056C248.831 267.896 238.497 272.707 227.094 272.707Z" fill="white"/>
<path id="Vector_13" d="M312.795 245.803V323.129H242.595L191.816 272.528C201.081 281.081 213.553 286.248 227.094 286.248C242.774 286.248 256.849 279.299 266.471 268.43C274.666 259.165 279.655 247.05 279.655 233.687C279.655 222.106 275.914 211.415 269.499 202.685L312.795 245.803Z" fill="#DCE3E3"/>
<path id="Vector_14" opacity="0.21" d="M244.199 208.03C239.388 212.306 235.112 218.186 233.509 222.64C231.549 228.52 234.578 235.469 229.767 240.279C225.669 244.199 213.553 249.188 206.248 255.602C200.903 250.257 197.34 242.952 197.161 234.756C199.478 234.043 201.438 232.974 202.685 231.549C205.357 227.807 203.219 222.996 206.426 219.611C211.593 213.553 224.6 211.059 224.956 203.397C225.847 203.219 226.916 203.219 227.807 203.219C233.687 203.219 239.388 204.823 244.199 208.03Z" fill="white"/>
<g id="Group_3" opacity="0.21">
<path id="Vector_15" opacity="0.21" d="M233.152 263.976C233.33 263.085 233.33 262.373 233.33 261.482C232.618 256.849 231.549 254.355 234.221 250.079C235.29 248.297 237.072 246.159 238.854 244.199C239.923 249.544 242.061 254.711 245.09 259.344C241.348 261.66 237.428 263.263 233.152 263.976Z" fill="white"/>
</g>
<path id="Vector_16" d="M323.664 351.993C331.147 359.477 323.664 363.753 315.646 364.287C304.778 365.356 296.225 357.16 285.891 356.804C267.005 356.27 238.141 377.65 221.215 363.931C203.219 348.786 239.566 351.637 235.825 337.918C232.974 329.009 220.324 334.176 213.197 331.325C205.714 328.475 204.823 325.802 206.961 323.308H312.795V318.141C324.733 320.279 336.492 323.486 336.492 330.434C336.492 338.452 320.813 335.602 315.646 338.987C303.887 346.826 319.388 347.717 323.664 351.993Z" fill="#61BDD3"/>
<path id="Vector_17" d="M191.994 352.884C187.184 353.775 167.941 355.2 167.407 346.826C166.872 337.918 186.293 341.125 191.104 341.125C205.536 341.659 205.179 350.568 191.994 352.884Z" fill="#61BDD3"/>
<path id="Vector_18" d="M164.734 323.129H147.808V327.94H164.734V323.129Z" fill="#66797E"/>
<path id="Vector_19" d="M307.094 323.129H290.168V327.94H307.094V323.129Z" fill="#66797E"/>
<g id="Group_4">
<path id="Vector_20" d="M310.301 333.107C305.312 335.067 298.898 335.78 302.283 341.838C304.421 346.292 307.807 349.855 300.145 349.855C292.127 349.855 285.713 344.154 278.23 343.441C270.212 342.728 262.373 348.074 254.533 343.263C250.257 340.59 252.573 339.343 252.395 335.245C251.86 330.613 248.119 330.613 244.199 330.078C238.676 329.544 233.152 331.325 227.451 332.394C222.64 331.86 216.939 332.929 213.019 331.325C205.536 328.475 204.645 325.802 206.783 323.308H289.989V328.118H306.916V323.308H312.617V321.526C313.152 321.704 313.508 322.06 314.043 322.239C315.468 322.951 319.21 324.555 319.922 326.158C321.704 329.722 313.508 331.86 310.301 333.107Z" fill="#D3E0E0"/>
</g>
<path id="Vector_21" d="M187.896 130.881C187.896 132.307 186.649 133.554 185.224 133.554H167.941C166.516 133.554 165.269 132.307 165.269 130.881C165.269 129.456 166.516 128.209 167.941 128.209H185.224C186.649 128.209 187.896 129.278 187.896 130.881Z" fill="#E6E9E9"/>
</g>
<path id="Vector_22" d="M312.795 107.541V317.962C324.733 320.1 336.314 323.308 336.314 330.256C336.314 338.274 320.635 335.423 315.468 338.809C303.709 346.826 319.21 347.717 323.486 351.993C330.969 359.477 323.486 363.753 315.468 364.287C304.599 365.356 296.047 357.16 285.713 356.804C266.827 356.448 237.963 377.65 221.037 363.931C203.041 348.786 239.388 351.637 235.647 337.918C234.399 333.998 231.371 332.751 227.629 332.394H227.451C226.738 332.394 226.025 332.394 225.313 332.216C221.037 332.038 216.404 332.573 213.019 331.147C205.536 328.296 204.645 325.624 206.783 323.129H164.734V327.94H147.808V323.129H141.572L251.86 433.418C353 482 462 394 435.022 229.945L312.795 107.541ZM191.816 352.884C187.184 353.953 167.763 355.2 167.228 346.826C166.872 337.918 186.115 341.125 190.747 341.125C205.536 341.659 205.179 350.568 191.816 352.884Z" fill="#DBD2BF"/>
</g>
</g>
</g>
</g>
</svg>
