<svg width="450" height="450" viewBox="0 0 450 450" fill="none" xmlns="http://www.w3.org/2000/svg">
<rect width="450" height="450" fill="#E5E5E5"/>
<g id="bain 1">
<g clip-path="url(#clip0)">
<g id="Group">
<g id="l">
<mask id="mask0" mask-type="alpha" maskUnits="userSpaceOnUse" x="-54" y="-60" width="570" height="570">
<path id="Vector" d="M372.855 366.855C451.437 288.273 451.437 160.867 372.855 82.2851C294.273 3.7032 166.867 3.70319 88.285 82.2851C9.70318 160.867 9.70318 288.273 88.285 366.855C166.867 445.437 294.273 445.437 372.855 366.855Z" fill="#43B4A9"/>
</mask>
<g mask="url(#mask0)">
<path id="Vector_2" d="M372.855 366.855C451.437 288.273 451.437 160.867 372.855 82.2851C294.273 3.7032 166.867 3.70319 88.285 82.2851C9.70318 160.867 9.70318 288.273 88.285 366.855C166.867 445.437 294.273 445.437 372.855 366.855Z" fill="#43B4A9"/>
<g id="machine">
<g id="Group_2">
<path id="Vector_3" d="M175.264 277.565C175.264 281.008 173.543 283.934 171.133 285.828C170.444 286.172 169.928 286.516 169.411 286.861C161.665 291.852 162.698 299.943 159.083 308.033C155.813 315.09 148.928 317.672 141.698 317.156V313.885C147.895 313.025 152.715 306.828 153.575 300.287C154.608 291.68 151.682 281.008 155.813 273.778C155.985 273.434 156.157 273.262 156.157 272.918C157.879 269.647 161.321 267.41 165.108 267.41C170.788 267.237 175.264 271.885 175.264 277.565Z" fill="#4A3A47"/>
<path id="Vector_4" d="M282.331 277.565C282.331 281.008 284.052 283.934 286.462 285.828C287.15 286.172 287.667 286.516 288.183 286.861C295.929 291.852 294.896 299.943 298.511 308.033C301.782 315.09 308.667 317.672 315.897 317.156V313.885C309.7 313.025 304.88 306.828 304.019 300.287C302.987 291.68 305.913 281.008 301.782 273.778C301.609 273.434 301.437 273.262 301.437 272.918C299.716 269.647 296.273 267.41 292.486 267.41C286.978 267.237 282.331 271.885 282.331 277.565Z" fill="#4A3A47"/>
<path id="Vector_5" d="M362.372 206.991C362.372 252.95 325.192 290.131 279.232 290.131H187.658C141.698 290.131 104.517 252.95 104.517 206.991H362.372V206.991Z" fill="#F2F2F2"/>
<path id="Vector_6" opacity="0.87" d="M362.372 206.991C362.372 252.95 325.192 290.131 279.232 290.131H187.657C165.108 290.131 144.796 281.18 129.821 266.721C135.329 267.754 140.837 268.442 146.69 268.442H238.265C276.65 268.442 308.839 242.45 318.479 207.163H362.372V206.991Z" fill="#C8D5D6"/>
<path id="Vector_7" d="M375.627 200.966C375.627 197.007 372.356 193.737 368.397 193.737H98.4926C94.5336 193.737 91.2631 197.007 91.2631 200.966C91.2631 204.925 94.5336 208.196 98.4926 208.196H368.397C372.356 208.196 375.627 204.925 375.627 200.966Z" fill="#E3E3E3"/>
<path id="Vector_8" d="M168.895 275.844C168.895 279.631 167.002 283.074 164.247 285.139C163.559 285.483 162.87 285.828 162.354 286.172C153.747 291.68 154.78 300.803 150.821 309.754C147.206 317.672 139.46 320.599 131.37 319.91V316.295C138.255 315.435 143.591 308.377 144.624 300.975C145.657 291.336 142.387 279.459 147.206 271.369C147.378 271.024 147.551 270.68 147.723 270.508C149.616 266.893 153.403 264.483 157.706 264.483C163.903 264.483 168.895 269.475 168.895 275.844Z" fill="#564553"/>
<path id="Vector_9" d="M288.7 275.844C288.7 279.631 290.593 283.074 293.347 285.139C294.036 285.483 294.724 285.828 295.241 286.172C303.847 291.68 302.814 300.803 306.774 309.754C310.388 317.672 318.134 320.599 326.225 319.91V316.295C319.339 315.435 314.003 308.377 312.97 300.975C311.937 291.336 315.208 279.459 310.388 271.369C310.216 271.024 310.044 270.68 309.872 270.508C307.978 266.893 304.192 264.483 299.888 264.483C293.864 264.483 288.7 269.475 288.7 275.844Z" fill="#564553"/>
<g id="Group_3">
<path id="Vector_10" d="M330.184 154.662V183.237H322.61V154.662C322.61 150.359 319.167 146.916 314.864 146.916C310.56 146.916 307.118 150.359 307.118 154.662V159.826H299.544V154.662C299.544 146.228 306.429 139.343 314.864 139.343C323.298 139.343 330.184 146.228 330.184 154.662Z" fill="#E0E8E9"/>
</g>
<path id="Vector_11" d="M353.594 182.376H299.028V193.737H353.594V182.376Z" fill="#CAD5D5"/>
<path id="Vector_12" d="M351.528 177.728C351.528 179.105 350.323 180.31 348.946 180.31C348.085 180.31 347.397 179.966 347.053 179.277H339.823C339.307 179.966 338.618 180.31 337.93 180.31C336.552 180.31 335.348 179.105 335.348 177.728C335.348 176.351 336.552 175.146 337.93 175.146C338.79 175.146 339.479 175.491 339.823 176.179H347.053C347.569 175.491 348.258 175.146 348.946 175.146C350.323 175.318 351.528 176.351 351.528 177.728Z" fill="#3DAFC8"/>
<path id="Vector_13" d="M345.331 179.278H341.544V182.548H345.331V179.278Z" fill="#CCCCCC"/>
<path id="Vector_14" d="M317.274 177.728C317.274 179.105 316.241 180.31 314.692 180.31C313.831 180.31 313.142 179.966 312.798 179.277H305.569C305.224 179.966 304.364 180.31 303.675 180.31C302.298 180.31 301.093 179.105 301.093 177.728C301.093 176.351 302.126 175.146 303.675 175.146C304.536 175.146 305.224 175.491 305.569 176.179H312.798C313.315 175.491 314.003 175.146 314.692 175.146C316.241 175.318 317.274 176.351 317.274 177.728Z" fill="#F86A6F"/>
<path id="Vector_15" d="M311.249 179.278H307.462V182.548H311.249V179.278Z" fill="#CCCCCC"/>
</g>
<path id="Vector_16" d="M430.365 248.475C488.14 364.758 368.053 526.758 237.06 425.428L131.37 319.738C136.018 320.082 140.665 319.222 144.452 316.812C150.649 316.64 156.329 313.713 159.083 307.689C162.354 300.287 161.838 292.541 167.862 287.549C170.616 288.238 173.37 288.754 176.297 289.098C177.33 289.27 178.362 289.443 179.395 289.443C182.149 289.787 184.903 289.787 187.658 289.787H279.232C283.363 289.787 287.322 289.443 291.282 288.926C295.757 293.918 295.585 300.803 298.511 307.517C301.265 313.713 306.946 316.467 313.142 316.64C316.929 319.049 321.405 319.91 326.225 319.566V315.951C319.339 315.09 313.831 308.033 312.97 300.631C312.282 294.951 313.142 288.41 312.97 282.557C341.544 269.819 361.684 241.245 362.028 207.852H368.053C372.184 207.852 375.282 204.581 375.282 200.622C375.282 196.663 372.012 193.392 368.053 193.392H353.249V182.032H345.159V178.933H346.88C347.397 179.622 348.085 179.966 348.946 179.966C350.323 179.966 351.528 178.761 351.528 177.384C351.528 176.007 350.495 174.974 348.946 174.974C348.085 174.974 347.397 175.318 346.88 176.007H339.651C339.134 175.318 338.446 174.974 337.585 174.974C336.208 174.974 335.175 176.007 335.175 177.384C335.175 178.761 336.208 179.966 337.585 179.966C338.446 179.966 339.134 179.622 339.651 178.933H341.372V182.032H330.011V154.318C330.011 150.703 328.634 147.261 326.569 144.507L430.365 248.475Z" fill="#D2D6D7"/>
</g>
</g>
</g>
</g>
</g>
</g>
<defs>
<clipPath id="clip0">
<rect width="450" height="450" fill="white"/>
</clipPath>
</defs>
</svg>
