<svg width="447" height="444" viewBox="0 0 447 444" fill="none" xmlns="http://www.w3.org/2000/svg">
<rect width="447" height="444" fill="#E5E5E5"/>
<g id="chauffage 1">
<g clip-path="url(#clip0)">
<g id="Group">
<path id="fond" d="M378.482 376.358C464.175 291.24 464.175 153.237 378.482 68.1192C292.789 -16.9985 153.853 -16.9985 68.1606 68.1192C-17.5322 153.237 -17.5322 291.24 68.1606 376.358C153.853 461.475 292.789 461.475 378.482 376.358Z" fill="#745A67"/>
<g id="Mask Group">
<mask id="mask0" mask-type="alpha" maskUnits="userSpaceOnUse" x="3" y="4" width="440" height="437">
<path id="Vector" d="M378.482 376.358C464.175 291.24 464.175 153.237 378.482 68.1192C292.789 -16.9985 153.853 -16.9985 68.1606 68.1192C-17.5322 153.237 -17.5322 291.24 68.1606 376.358C153.853 461.475 292.789 461.475 378.482 376.358Z" fill="#745A67"/>
</mask>
<g mask="url(#mask0)">
<g id="machine">
<g id="Group_2">
<g id="Group_3">
<path id="Vector_2" d="M352.406 247.806V270.425H319.629V278.992H117.62C114.688 278.992 112.445 276.765 112.445 273.852V244.55C112.445 241.637 114.688 239.41 117.62 239.41H319.629V247.977H352.406V247.806Z" fill="#C0CBCC"/>
<path id="Vector_3" d="M352.406 120.492V143.11H319.629V151.678H117.62C114.688 151.678 112.445 149.45 112.445 146.537V117.236C112.445 114.323 114.688 112.095 117.62 112.095H319.629V120.663H352.406V120.492Z" fill="#C0CBCC"/>
<path id="Vector_4" d="M175.929 104.899V287.388C175.929 303.324 162.818 316.347 146.774 316.347C138.666 316.347 131.421 313.091 126.246 307.951C120.898 302.639 117.793 295.442 117.793 287.56V104.899C117.793 88.9629 130.904 75.9401 146.947 75.9401C155.055 75.9401 162.3 79.1958 167.476 84.3364C172.651 89.6483 175.929 96.8451 175.929 104.899Z" fill="#E5E5E5"/>
<path id="Vector_5" d="M152.295 316.69C152.295 319.774 149.707 322.173 146.774 322.173C143.669 322.173 141.254 319.603 141.254 316.69V75.5974C141.254 72.5131 143.842 70.1142 146.774 70.1142C149.88 70.1142 152.295 72.6844 152.295 75.5974V316.69Z" fill="#F7F7F7"/>
<path id="Vector_6" opacity="0.52" d="M157.988 78.1677V314.119C156.262 314.805 154.365 315.49 152.467 315.833V76.4542C154.365 76.7969 156.09 77.4823 157.988 78.1677Z" fill="#CAD7D8"/>
<path id="Vector_7" d="M250.97 287.388C250.97 303.324 237.86 316.347 221.816 316.347C205.773 316.347 192.662 303.324 192.662 287.388V104.899C192.662 88.9629 205.773 75.9401 221.816 75.9401C237.86 75.9401 250.97 88.9629 250.97 104.899V287.388Z" fill="#E5E5E5"/>
<path id="Vector_8" opacity="0.52" d="M233.029 78.1677V314.119C231.304 314.805 229.407 315.49 227.336 315.833V76.4542C229.407 76.7969 231.132 77.4823 233.029 78.1677Z" fill="#CAD7D8"/>
<path id="Vector_9" d="M227.336 316.69C227.336 319.774 224.921 322.173 221.816 322.173C218.711 322.173 216.296 319.603 216.296 316.69V75.5974C216.296 72.5131 218.711 70.1142 221.816 70.1142C224.921 70.1142 227.336 72.6844 227.336 75.5974V316.69Z" fill="#F7F7F7"/>
<path id="Vector_10" d="M326.012 287.388C326.012 303.324 312.901 316.347 296.858 316.347C280.814 316.347 267.704 303.324 267.704 287.388V104.899C267.704 88.9629 280.814 75.9401 296.858 75.9401C312.901 75.9401 326.012 88.9629 326.012 104.899V287.388Z" fill="#E5E5E5"/>
<path id="Vector_11" opacity="0.52" d="M308.071 78.1677V314.119C306.346 314.805 304.448 315.49 302.378 315.833V76.4542C304.448 76.7969 306.346 77.4823 308.071 78.1677Z" fill="#CAD7D8"/>
<path id="Vector_12" d="M302.378 316.69C302.378 319.774 299.963 322.173 296.858 322.173C293.753 322.173 291.338 319.603 291.338 316.69V75.5974C291.338 72.5131 293.753 70.1142 296.858 70.1142C299.963 70.1142 302.378 72.6844 302.378 75.5974V316.69Z" fill="#F7F7F7"/>
<path id="Vector_13" d="M192.662 112.095H175.929V151.849H192.662V112.095Z" fill="#DCE3E3"/>
<path id="Vector_14" d="M267.704 112.095H250.97V151.849H267.704V112.095Z" fill="#DCE3E3"/>
<path id="Vector_15" d="M192.662 239.41H175.929V279.163H192.662V239.41Z" fill="#DCE3E3"/>
<path id="Vector_16" d="M267.704 239.41H250.97V279.163H267.704V239.41Z" fill="#DCE3E3"/>
<path id="Vector_17" d="M338.088 120.492H326.012V143.11H338.088V120.492Z" fill="#DCE3E3"/>
<path id="Vector_18" d="M338.088 247.806H326.012V270.425H338.088V247.806Z" fill="#DCE3E3"/>
</g>
</g>
<path id="Vector_19" d="M442.111 208.395C619 332 377 590 227.164 408.192L126.073 307.779C130.041 311.72 135.389 314.633 141.082 315.833V316.69C141.082 319.774 143.497 322.173 146.602 322.173C149.707 322.173 152.122 319.603 152.122 316.69V315.833C154.192 315.49 155.917 314.805 157.643 314.119C168.166 309.836 175.584 299.554 175.584 287.388V278.992H192.317V287.388C192.317 295.442 195.595 302.639 200.77 307.779C204.738 311.72 210.085 314.633 215.778 315.833V316.69C215.778 319.774 218.193 322.173 221.299 322.173C224.404 322.173 226.819 319.603 226.819 316.69V315.833C227.854 315.661 228.717 315.49 229.752 315.147C230.614 314.805 231.649 314.462 232.512 314.119C243.035 309.836 250.453 299.383 250.453 287.388V278.992H267.186V287.388C267.186 295.442 270.464 302.639 275.812 307.779C279.779 311.72 284.955 314.633 290.82 315.833V316.69C290.82 319.774 293.408 322.173 296.34 322.173C299.446 322.173 301.861 319.603 301.861 316.69V315.833C303.758 315.49 305.656 314.805 307.553 314.119C318.077 309.836 325.494 299.383 325.494 287.388V270.596H351.888V247.806H325.494V143.11H351.888V120.492H325.494V104.899C325.494 97.8732 323.079 91.5331 318.767 86.5639L442.111 208.395Z" fill="#C6C2C7"/>
<path id="Vector_20" d="M267.704 151.678H250.97V239.239H267.704V151.678Z" fill="#C6C2C7"/>
<path id="Vector_21" d="M192.662 151.678H175.929V239.239H192.662V151.678Z" fill="#C6C2C7"/>
<path id="Vector_22" d="M192.662 109.525V111.924H175.929V104.727C175.929 96.6737 172.651 89.4769 167.303 84.165L192.662 109.525Z" fill="#C6C2C7"/>
<path id="Vector_23" d="M267.704 109.525V112.095H250.97V104.899C250.97 96.8451 247.693 89.6483 242.517 84.5077L267.704 109.525Z" fill="#C6C2C7"/>
</g>
</g>
</g>
</g>
</g>
</g>
<defs>
<clipPath id="clip0">
<rect width="447" height="444" fill="white"/>
</clipPath>
</defs>
</svg>
